<svg t="1580464297346" class="icon" viewBox="0 0 1024 1024" version="1.1" xmlns="http://www.w3.org/2000/svg" p-id="4688" width="30" height="30"><path d="M527.053 96.924c-169.131 0.322-306.127 137.496-306.127 306.7 0 157.986 128.978 324.17 278.121 502.935 7.838 9.418 17.977 14.485 28.006 15.061 10.029-0.576 20.168-5.643 28.002-15.061 149.144-178.765 278.123-344.948 278.123-502.935 0-169.205-136.997-306.378-306.126-306.7zM527.053 500.967c-66.070-0.358-119.562-53.956-119.562-120.099s53.492-119.74 119.562-120.099c66.069 0.358 119.557 53.956 119.557 120.099s-53.487 119.74-119.557 120.099z" p-id="4689" fill="#d81e06"></path></svg>