<svg t="1580649368473" class="icon" viewBox="0 0 1024 1024" version="1.1" xmlns="http://www.w3.org/2000/svg" p-id="1253" width="40" height="40"><path d="M173.952 159.872h613.504c67.456 0 122.752 55.168 122.752 122.752v536.832c0 42.88-33.792 76.672-76.672 76.672H173.952C106.368 896 51.2 840.832 51.2 773.376V282.496c0-67.456 55.168-122.624 122.752-122.624z m0 0" fill="#FFBB96" p-id="1254"></path><path d="M173.952 159.872h613.504c67.456 0 122.752 55.168 122.752 122.752v383.488l-122.752 110.464-3.072 3.072-122.752 116.352h-487.68C106.368 896 51.2 840.832 51.2 773.376V282.496c0-67.456 55.168-122.624 122.752-122.624z m0 0" fill="#CF5A1A" p-id="1255"></path><path d="M173.952 159.872h613.504c67.456 0 122.752 55.168 122.752 122.752v383.488H741.376c-43.008 0-76.672 33.792-76.672 76.672V896H173.952C106.368 896 51.2 840.832 51.2 773.376V282.496c0-67.456 55.168-122.624 122.752-122.624z m0 0" fill="#FF7A45" p-id="1256"></path><path d="M357.888 98.56v141.056c0 18.432-12.288 30.72-30.72 30.72s-30.72-12.288-30.72-30.72V98.56c0-18.432 12.288-30.72 30.72-30.72 18.56 0 30.72 12.288 30.72 30.72z m276.096 171.776c18.432 0 30.72-12.288 30.72-30.72V98.56c0-18.432-12.288-30.72-30.72-30.72s-30.72 12.288-30.72 30.72v141.056c0.128 18.432 12.288 30.72 30.72 30.72zM311.936 420.608c-25.472 0-45.952 20.608-45.952 45.952 0 25.472 20.608 45.952 45.952 45.952 25.472 0 45.952-20.608 45.952-45.952 0-25.344-20.48-45.952-45.952-45.952z m168.704 76.672h184.064c18.432 0 30.72-12.288 30.72-30.72s-12.288-30.72-30.72-30.72H480.64c-18.432 0-30.72 12.288-30.72 30.72s12.288 30.72 30.72 30.72z m184.064 92.032H480.64c-18.432 0-30.72 12.288-30.72 30.72s12.288 30.72 30.72 30.72h184.064c18.432 0 30.72-12.288 30.72-30.72s-12.288-30.72-30.72-30.72z m-352.768-15.36c-25.472 0-45.952 20.608-45.952 45.952 0 25.472 20.608 45.952 45.952 45.952 25.472 0 45.952-20.608 45.952-45.952 0-25.344-20.48-45.952-45.952-45.952z" fill="#FFBB96" p-id="1257"></path><path d="M974.08 968.448c13.056-13.056 11.776-31.616-2.944-46.336L857.6 808.576c-14.848-14.848-33.408-16-46.336-2.944-13.056 13.056-11.776 31.616 2.944 46.336l113.536 113.536c14.72 14.848 33.28 16 46.336 2.944z" fill="#FFFFFF" p-id="1258"></path><path d="M595.584 707.84c0 45.696 24.448 87.936 64 110.848 39.552 22.912 88.448 22.912 128 0 39.552-22.912 64-65.152 64-110.848 0-70.656-57.344-128-128-128-70.784 0-128 57.344-128 128z m0 0" fill="#FFFFFF" opacity=".5" p-id="1259"></path><path d="M723.584 528.64c-98.944 0-179.2 80.256-179.2 179.2 0 64 34.176 123.136 89.6 155.136s123.776 32 179.2 0 89.6-91.136 89.6-155.136c0-98.944-80.256-179.2-179.2-179.2z m64 290.048c-39.552 22.912-88.448 22.912-128 0-39.552-22.912-64-65.152-64-110.848 0-70.656 57.344-128 128-128s128 57.344 128 128c0 45.696-24.448 87.936-64 110.848z" fill="#FFFFFF" p-id="1260"></path></svg>